<svg width="23" height="26" viewBox="0 0 23 26" fill="none" xmlns="http://www.w3.org/2000/svg">
<path fill-rule="evenodd" clip-rule="evenodd" d="M7.7017 1C7.7017 0.447715 8.14324 0 8.68791 0H14.15C14.6946 0 15.1362 0.447715 15.1362 1C15.1362 1.55228 14.6946 2 14.15 2H8.68791C8.14324 2 7.7017 1.55228 7.7017 1ZM11.4189 5.69231C6.43315 5.69231 2.39136 9.79062 2.39136 14.8462C2.39136 19.9017 6.43315 24 11.4189 24C16.4047 24 20.4465 19.9017 20.4465 14.8462C20.4465 9.79062 16.4047 5.69231 11.4189 5.69231ZM0.418945 14.8462C0.418945 8.68605 5.34381 3.69231 11.4189 3.69231C17.4941 3.69231 22.4189 8.68605 22.4189 14.8462C22.4189 21.0063 17.4941 26 11.4189 26C5.34381 26 0.418945 21.0063 0.418945 14.8462ZM16.6225 9.56934C17.0076 9.95986 17.0076 10.593 16.6225 10.9835L12.1163 15.5528C11.7312 15.9433 11.1067 15.9433 10.7216 15.5528C10.3365 15.1623 10.3365 14.5291 10.7216 14.1386L15.2278 9.56934C15.6129 9.17881 16.2374 9.17881 16.6225 9.56934Z" fill="#00875F"/>
</svg>
